<svg xmlns="http://www.w3.org/2000/svg" xml:space="preserve" width="2000" height="1500" data-id="lg_T1ScD3MTXi8tDgPHbM" data-version="1" viewBox="0 0 2000 1500"><path fill="#d94e28" stroke="transparent" d="M0 0h2000v1500H0z"/><g data-padding="20"><g transform="translate(-1058.688 -774.674)scale(1.95032)"><rect width="321.834" height="541.162" x="494.146" y="120.094" fill="none" rx="0" ry="0" transform="translate(400.5 391.08)"/><path fill="#efefef" d="M1140.433 937.105q-10.52 0-23.03-1.75t-23.85-5.49q-11.34-3.75-18.36-9.12-.7-3.98-.7-10.29 0-8.42 1.52-18.71t4.56-16.84l-102.19-216.3-1.17.47q2.11 7.01 7.02 25.25t11.1 43.03q6.2 24.79 12.28 51.8 6.08 27 10.87 51.91 4.8 24.9 6.67 43.14.23 2.57.35 5.26t.12 5.26q0 21.99-11.34 37.07-11.35 15.08-38.24 15.08-20.81 0-38.93-10.29t-26.31-27.59l7.25-38.12 25.96 2.11-1.87-205.55q-10.06-.7-20.82-3.51-10.75-2.8-19.64-8.41 0-14.03 2.69-28.3 2.69-14.26 10.76-26.54 8.06-12.28 23.73-20.69 11.23 1.4 29.58 5.72 18.36 4.33 38.94 12.28 20.57 7.95 37.88 20.35l90.73 232.43.93-.93q-2.8-16.61-7.24-42.8-4.45-26.19-9.36-56.23-4.91-30.05-9.23-58.81-4.33-28.77-7.02-51.22-2.69-22.44-2.69-32.97 4.44-9.35 21.51-16.25t35.55-6.9q9.35 0 20.69 2.57 11.34 2.58 18.59 7.49l-20.11 266.11q9.36 11.46 15.79 22.56 6.43 11.11 9.47 28.18-7.72 18.71-24.67 27.13-16.96 8.41-37.77 8.41"/></g><path fill="transparent" stroke="transparent" stroke-width="2.079" d="M665.203 187.5h669.594v1125H665.203z"/></g></svg>